<?xml version="1.0" encoding="utf-8"?>
<svg viewBox="28.805 62.157 296.684 457.293" shape-rendering="geometricPrecision" text-rendering="geometricPrecision" image-rendering="optimizeQuality" fill-rule="evenodd" clip-rule="evenodd" xmlns="http://www.w3.org/2000/svg">
  <g fill-rule="nonzero" transform="matrix(0.9999999999999999, 0, 0, 0.9999999999999999, -18.000000000000057, 6.999999999999993)">
    <path d="M 326.21 242.76 L 204.31 242.76 L 204.31 208.89 C 214.27 205.23 221.47 195.62 221.47 184.41 L 221.47 146.69 C 221.47 135.48 214.29 125.86 204.31 122.2 L 204.31 72.94 L 213.1 72.94 C 244.2 72.94 272.48 85.67 292.98 106.17 C 313.48 126.67 326.21 154.95 326.21 186.05 L 326.21 242.76 Z M 186.51 122.21 C 176.52 125.88 169.35 135.52 169.35 146.69 L 169.35 184.41 C 169.35 195.57 176.55 205.21 186.51 208.89 L 186.51 242.76 L 65.37 242.76 L 64.61 242.8 L 64.61 186.05 C 64.61 154.95 77.34 126.67 97.85 106.17 C 118.35 85.67 146.63 72.94 177.72 72.94 L 186.51 72.94 L 186.51 122.21 Z M 64.61 260.52 L 65.37 260.56 L 326.21 260.56 L 326.21 381.51 C 326.21 412.61 313.48 440.89 292.98 461.39 C 272.48 481.89 244.2 494.62 213.1 494.62 L 177.72 494.62 C 146.63 494.62 118.35 481.89 97.85 461.39 C 77.34 440.89 64.61 412.61 64.61 381.51 L 64.61 260.52 Z M 177.72 512.41 L 213.1 512.41 C 249.1 512.41 281.84 497.69 305.56 473.97 C 329.28 450.25 344 417.52 344 381.51 L 344 186.05 C 344 150.04 329.28 117.31 305.56 93.59 C 281.84 69.87 249.1 55.15 213.1 55.15 L 177.72 55.15 C 141.71 55.15 108.98 69.88 85.27 93.59 C 61.55 117.31 46.82 150.04 46.82 186.05 L 46.82 381.51 C 46.82 417.52 61.55 450.25 85.27 473.97 C 108.98 497.69 141.71 512.41 177.72 512.41 Z" style="fill: rgb(255, 255, 255);"/>
    <path d="M 186.51 72.94 L 186.51 122.21 C 176.52 125.88 169.35 135.52 169.35 146.69 L 169.35 184.42 C 169.35 195.58 176.55 205.21 186.51 208.88 L 186.51 242.76 L 65.37 242.76 L 64.61 242.8 L 64.61 186.05 C 64.61 154.95 77.34 126.67 97.85 106.17 C 118.35 85.67 146.63 72.94 177.72 72.94 L 186.51 72.94 Z" style="fill: rgb(255, 0, 0);"/>
  </g>
</svg>